<svg width="139" height="26" viewBox="0 0 139 26" fill="none" xmlns="http://www.w3.org/2000/svg">
<g clip-path="url(#clip0_243_5452)">
<path d="M0 0.108887V25.8964V26H26.556V10.7267H10.7373V15.2787H19.165V18.6913H7.39099V7.41757H29.9158V26H41.2789V7.41757H44.6252V26H55.9937V0.108887H0Z" fill="#010101"/>
<path d="M67.685 2.01047H74.2917V0.135498H67.685C66.0091 0.135498 64.6475 1.42355 64.6475 3.0117V8.08953C64.6475 9.67503 66.0091 10.9657 67.685 10.9657H74.2917V4.63172H68.7109V6.50935H72.4735V9.09076H67.685C67.0565 9.09076 66.5462 8.64193 66.5462 8.09219V3.00904C66.5462 2.4593 67.0565 2.01047 67.685 2.01047Z" fill="#010101"/>
<path d="M80.2729 1.98383H85.2279V0.106201H80.2729C78.5997 0.106201 77.2354 1.39425 77.2354 2.9824V8.08945C77.2354 9.67494 78.597 10.9656 80.2729 10.9656H85.2279V9.08802H80.2729C79.6444 9.08802 79.1341 8.63919 79.1341 8.08945V6.4774H85.2279V4.59977H79.1341V2.97975C79.1341 2.43 79.6444 1.98118 80.2729 1.98118V1.98383Z" fill="#010101"/>
<path d="M104.224 1.98383H109.179V0.106201H104.224C102.551 0.106201 101.187 1.39425 101.187 2.9824V8.08945C101.187 9.67494 102.548 10.9656 104.224 10.9656H109.179V9.08802H104.224C103.596 9.08802 103.085 8.63919 103.085 8.08945V6.4774H109.179V4.59977H103.085V2.97975C103.085 2.43 103.596 1.98118 104.224 1.98118V1.98383Z" fill="#010101"/>
<path d="M118.565 10.963H112.122V9.08539H118.565C119.193 9.08539 119.704 8.63656 119.704 8.08682V7.45209C119.704 6.90234 119.193 6.45352 118.565 6.45352H115.275C113.602 6.45352 112.238 5.16547 112.238 3.57732V3.00633C112.238 1.42083 113.599 0.130127 115.275 0.130127H121.764V2.00776H115.275C114.647 2.00776 114.136 2.45658 114.136 3.00633V3.57732C114.136 4.12706 114.647 4.57589 115.275 4.57589H118.565C120.238 4.57589 121.603 5.86394 121.603 7.45209V8.08682C121.603 9.67231 120.241 10.963 118.565 10.963Z" fill="#010101"/>
<path d="M135.799 10.963H129.356V9.08539H135.799C136.428 9.08539 136.938 8.63656 136.938 8.08682V7.45209C136.938 6.90234 136.428 6.45352 135.799 6.45352H132.509C130.836 6.45352 129.472 5.16547 129.472 3.57732V3.00633C129.472 1.42083 130.834 0.130127 132.509 0.130127H138.998V2.00776H132.509C131.881 2.00776 131.371 2.45658 131.371 3.00633V3.57732C131.371 4.12706 131.881 4.57589 132.509 4.57589H135.799C137.473 4.57589 138.837 5.86394 138.837 7.45209V8.08682C138.837 9.67231 137.475 10.963 135.799 10.963Z" fill="#010101"/>
<path d="M126.601 0H124.702V11.0985H126.601V0Z" fill="#010101"/>
<path d="M90.0677 10.9631H88.1689V1.11017C88.1689 0.722429 88.4107 0.374523 88.7759 0.233768C89.1385 0.0930116 89.5574 0.191275 89.8206 0.480754L96.3468 7.59822V0.114258H98.2456V10.0309C98.2456 10.4186 98.0039 10.7666 97.6386 10.9073C97.2734 11.0454 96.8571 10.9498 96.5939 10.6603L90.0677 3.54286V10.9631Z" fill="#010101"/>
<path d="M80.7025 17.0129H85.6576V15.1353H80.7025C79.0294 15.1353 77.665 16.4233 77.665 18.0115V23.1185C77.665 24.704 79.0267 25.9947 80.7025 25.9947H85.6576V24.1171H80.7025C80.0741 24.1171 79.5638 23.6682 79.5638 23.1185V21.5064H85.6576V19.6288H79.5638V18.0088C79.5638 17.4591 80.0741 17.0102 80.7025 17.0102V17.0129Z" fill="#010101"/>
<path d="M95.0435 25.9921H88.6006V24.1144H95.0435C95.672 24.1144 96.1823 23.6656 96.1823 23.1159V22.4811C96.1823 21.9314 95.672 21.4826 95.0435 21.4826H91.7536C90.0804 21.4826 88.7161 20.1945 88.7161 18.6064V18.0354C88.7161 16.4499 90.0777 15.1592 91.7536 15.1592H98.2422V17.0368H91.7536C91.1251 17.0368 90.6148 17.4856 90.6148 18.0354V18.6064C90.6148 19.1561 91.1251 19.6049 91.7536 19.6049H95.0435C96.7167 19.6049 98.081 20.893 98.081 22.4811V23.1159C98.081 24.7014 96.7194 25.9921 95.0435 25.9921Z" fill="#010101"/>
<path d="M66.5462 25.9921H64.6475V16.1392C64.6475 15.7515 64.8892 15.4036 65.2544 15.2628C65.617 15.1221 66.036 15.2203 66.2992 15.5098L72.8254 22.6273V15.1433H74.7241V25.06C74.7241 25.4477 74.4824 25.7956 74.1172 25.9364C73.7519 26.0745 73.3356 25.9789 73.0724 25.6894L66.5462 18.5719V25.9921Z" fill="#010101"/>
<path d="M110.846 15.1646H101.202V17.0422H105.07V25.9921H106.968V17.0422H110.846V15.1646Z" fill="#010101"/>
</g>
<defs>
<clipPath id="clip0_243_5452">
<rect width="139" height="26" fill="white"/>
</clipPath>
</defs>
</svg>
